<?xml version="1.0" standalone="no"?>
<!DOCTYPE svg PUBLIC "-//W3C//DTD SVG 20010904//EN"
 "http://www.w3.org/TR/2001/REC-SVG-20010904/DTD/svg10.dtd">
<svg version="1.0" xmlns="http://www.w3.org/2000/svg"
 width="1249.000000pt" height="394.000000pt" viewBox="0 0 1249.000000 394.000000"
 preserveAspectRatio="xMidYMid meet">

<g transform="translate(0.000000,394.000000) scale(0.100000,-0.100000)"
fill="#000000" stroke="none">
<path d="M11901 3746 c-55 -18 -88 -49 -115 -106 -20 -43 -21 -62 -24 -477 -2
-282 -7 -433 -14 -433 -5 0 -28 16 -51 35 -55 47 -144 91 -215 106 -83 17
-261 6 -342 -21 -301 -102 -562 -409 -620 -729 -16 -89 -14 -273 5 -362 66
-320 327 -616 625 -707 92 -28 182 -35 283 -22 111 14 180 39 257 96 33 24 66
44 73 44 6 -1 21 -20 33 -43 16 -33 33 -48 79 -72 57 -29 63 -30 194 -30 131
0 138 1 196 30 47 24 65 40 85 75 l25 45 0 1215 0 1215 -26 50 c-18 36 -38 57
-70 75 -41 23 -55 25 -189 27 -103 2 -158 -2 -189 -11z m-353 -1498 c56 -17
125 -80 161 -148 39 -73 52 -170 31 -236 -19 -63 -78 -140 -136 -180 -51 -35
-60 -38 -143 -42 -79 -4 -95 -2 -144 21 -69 31 -135 96 -167 162 -32 67 -34
179 -3 247 27 59 95 134 147 160 71 36 169 42 254 16z"/>
<!-- This is the Logo element -->
<path d="M312 3740 c-66 -16 -85 -51 -96 -185 -3 -38 -15 -182 -26 -320 -11
-137 -36 -436 -55 -664 -38 -451 -41 -508 -22 -531 35 -43 43 -45 271 -50
l221 -5 0 -145 0 -145 -90 -5 c-100 -6 -128 -17 -150 -60 -21 -41 -23 -1062
-1 -1113 25 -62 98 -86 152 -51 38 25 48 51 54 144 l5 85 140 0 140 0 5 -210
c7 -308 -9 -295 370 -295 379 0 363 -13 370 295 l5 210 140 0 140 0 5 -85 c6
-93 16 -119 54 -144 54 -35 127 -11 152 51 22 51 20 1072 -1 1113 -22 43 -50
54 -150 60 l-90 5 0 145 0 145 221 5 c228 5 236 7 271 50 19 23 16 92 -22 541
-19 228 -42 497 -50 599 -45 534 -42 514 -92 548 -25 16 -89 17 -933 19 -498
0 -920 -2 -938 -7z m1323 -1900 l0 -145 -405 0 -405 0 -3 134 c-1 74 0 141 2
148 4 11 83 13 408 11 l403 -3 0 -145z m-260 -1290 l0 -145 -145 0 -145 0 -3
134 c-1 74 0 141 2 148 4 11 37 13 148 11 l143 -3 0 -145z" fill="#676767"/>
<path d="M3170 3524 c-124 -23 -163 -46 -193 -113 -18 -41 -21 -73 -25 -293
l-5 -246 -91 1 c-71 2 -99 -2 -128 -17 -76 -37 -102 -129 -96 -327 4 -141 18
-183 76 -227 33 -25 42 -27 139 -27 l103 0 0 -240 c0 -421 21 -583 93 -720 77
-146 244 -251 454 -285 109 -18 319 -15 378 5 60 20 81 38 106 87 40 79 47
274 12 358 -32 80 -85 105 -237 115 -186 12 -186 12 -186 401 l0 286 67 -8
c36 -3 121 -7 187 -7 109 -1 126 1 171 23 92 46 120 125 113 320 -5 145 -26
196 -96 238 l-47 27 -196 -1 -197 0 -4 245 c-5 261 -9 284 -56 335 -44 47
-102 66 -216 70 -55 3 -112 3 -126 0z"/>
<path d="M9380 2924 c-292 -31 -472 -105 -649 -270 -166 -154 -257 -348 -282
-603 -24 -245 30 -469 164 -674 177 -271 463 -407 858 -407 244 0 439 30 559
86 85 40 123 72 153 129 45 86 11 242 -75 340 -76 86 -131 95 -279 41 -130
-47 -212 -59 -354 -54 -93 4 -133 10 -178 27 -104 41 -187 121 -187 182 l0 28
463 3 c527 3 507 0 607 94 90 84 129 208 116 373 -14 191 -82 338 -220 477
-149 149 -313 213 -581 227 -44 2 -96 3 -115 1z m167 -566 c61 -15 129 -79
138 -130 10 -54 -1 -101 -31 -129 -26 -24 -26 -24 -291 -27 l-266 -3 6 37 c14
86 125 203 232 244 57 22 145 25 212 8z"/>
<path d="M4431 2890 c-96 -46 -189 -116 -222 -168 -35 -55 -38 -116 -10 -177
10 -22 124 -218 253 -435 446 -749 498 -838 498 -850 0 -6 -51 -125 -114 -263
-195 -429 -232 -531 -214 -593 24 -89 174 -188 333 -221 70 -14 80 -14 120 2
25 9 57 31 71 48 33 39 -7 -49 578 1260 452 1012 486 1091 486 1143 0 30 -6
67 -14 83 -38 73 -181 159 -311 186 -108 22 -171 1 -220 -73 -24 -37 -113
-227 -296 -637 -54 -121 -105 -221 -113 -223 -14 -3 -118 165 -411 663 -158
269 -174 285 -287 285 -49 0 -77 -7 -127 -30z"/>
<path d="M6592 2879 c-84 -16 -139 -67 -162 -148 -6 -23 -10 -447 -10 -1188 0
-1272 -3 -1211 62 -1280 41 -42 106 -58 243 -57 166 1 223 24 268 107 22 41
22 50 25 470 2 297 6 427 14 427 6 0 26 -14 45 -30 97 -86 273 -129 442 -109
93 12 127 22 214 65 85 42 154 94 240 179 184 182 278 401 279 648 0 169 -31
303 -102 434 -92 174 -283 357 -447 429 -214 95 -495 63 -630 -72 -24 -24 -47
-44 -52 -44 -5 0 -11 14 -15 31 -9 44 -42 87 -86 109 -69 35 -226 49 -328 29z
m896 -634 c144 -78 203 -259 131 -403 -69 -139 -225 -205 -378 -163 -65 18
-162 117 -186 190 -23 70 -17 179 13 238 62 121 153 175 287 170 66 -3 90 -8
133 -32z"/>
</g>
</svg>
