<?xml version="1.0" standalone="no"?>
<!DOCTYPE svg PUBLIC "-//W3C//DTD SVG 20010904//EN"
 "http://www.w3.org/TR/2001/REC-SVG-20010904/DTD/svg10.dtd">
<svg version="1.0" xmlns="http://www.w3.org/2000/svg"
 width="1031.000000pt" height="1642.000000pt" viewBox="0 0 1031.000000 1642.000000"
 preserveAspectRatio="xMidYMid meet">

<g transform="translate(0.000000,1642.000000) scale(0.100000,-0.100000)"
fill="#676767" stroke="none">
<path d="M1890 15599 c-447 -5 -557 -10 -607 -22 -183 -47 -266 -137 -319
-344 -37 -146 -47 -250 -129 -1258 -42 -511 -129 -1576 -195 -2365 -118 -1420
-153 -1843 -186 -2280 -10 -128 -18 -339 -18 -490 -1 -302 -2 -300 83 -388
126 -132 204 -139 1659 -168 l342 -7 0 -609 c0 -572 -1 -608 -17 -608 -62 0
-522 -32 -585 -40 -162 -22 -251 -56 -318 -122 -67 -64 -87 -121 -99 -278 -58
-728 -58 -3747 0 -4340 12 -124 36 -183 109 -263 160 -175 429 -182 605 -16
110 104 136 209 165 674 5 88 10 174 10 192 l0 33 585 0 c460 0 586 -3 589
-12 3 -7 12 -335 21 -728 9 -393 21 -758 26 -810 33 -317 121 -447 345 -505
147 -38 204 -40 1174 -40 872 0 953 1 1055 18 212 36 320 99 385 226 29 58 57
187 70 321 9 106 40 1173 40 1423 l0 107 590 0 590 0 0 -38 c0 -144 34 -532
56 -635 30 -146 102 -240 232 -304 206 -103 465 -11 566 201 53 110 67 464 73
1954 6 1451 -10 2353 -47 2630 -25 186 -146 279 -405 311 -78 10 -520 41 -582
41 l-23 0 0 610 0 610 114 0 c177 0 952 19 1253 30 426 17 532 39 625 133 92
93 93 99 92 422 -1 201 -9 379 -28 630 -28 375 -359 4340 -401 4815 -67 755
-102 991 -162 1102 -33 60 -114 122 -188 143 -89 26 -336 36 -1120 45 -880 11
-5207 10 -6025 -1z m4923 -7328 c4 -4 6 -277 5 -607 l-3 -599 -1684 -3 c-927
-1 -1688 1 -1693 6 -10 10 -23 1008 -14 1104 8 77 8 77 42 88 20 7 95 16 167
20 161 10 3169 2 3180 -9z m-1335 -5367 l252 -6 0 -609 0 -609 -604 0 -604 0
-6 103 c-10 181 -17 848 -9 972 l8 120 30 14 c53 26 323 30 933 15z"/>
</g>
</svg>
